# xmcd
#
# Track frame offsets:
#	150
#	15938
#	32785
#	49651
#	70660
#	90460
#	111647
#	132601
#	147732
#	164288
#
# Disc length: 2407 seconds
#
# Revision: 1
# Processed by: cddbd v1.5.2PL0 Copyright (c) Steve Scherf et al.
# Submitted via: audiograbber 1.83.01
#
DISCID=8b09650a
DTITLE=Mark Gillespie - Exit
DYEAR=2001
DGENRE=Rhythmic Soul
TTITLE0=I Miss My Mummy
TTITLE1=Tears In Heaven
TTITLE2=Light At The End
TTITLE3=Come Together
TTITLE4=Give It Time
TTITLE5=The Drugs Don't Work
TTITLE6=Dock Of The Bay
TTITLE7=Boat On The River
TTITLE8=Wish You Were Here
TTITLE9=Mr. Wilkinson
EXTD=YEAR: 2001
EXTT0=
EXTT1=
EXTT2=
EXTT3=
EXTT4=
EXTT5=
EXTT6=
EXTT7=
EXTT8=
EXTT9=
PLAYORDER=
